<svg width="27" height="27" viewBox="0 0 27 27" fill="none" xmlns="http://www.w3.org/2000/svg">
<path fill-rule="evenodd" clip-rule="evenodd" d="M27 27H21.4052V18.2308C21.4052 16.1384 21.3701 13.4494 18.4986 13.4494C15.588 13.4494 15.1433 15.7281 15.1433 18.0796V27H9.55383V8.9649H14.9169V11.4312H14.9951C15.7402 10.0138 17.5661 8.51807 20.2881 8.51807C25.953 8.51807 26.9987 12.252 26.9987 17.109V27H27ZM3.24615 6.50263C2.81976 6.50298 2.39748 6.41911 2.00348 6.25581C1.60948 6.0925 1.25149 5.85298 0.949985 5.55093C0.648482 5.24889 0.409386 4.89025 0.246377 4.49554C0.0833687 4.10083 -0.000353318 3.67779 1.12069e-06 3.25064C1.34201e-06 2.60784 0.190238 1.97947 0.546662 1.44496C0.903086 0.910455 1.40969 0.493812 2.00245 0.2477C2.5952 0.00158736 3.24748 -0.0629436 3.87684 0.0622643C4.50619 0.187472 5.08436 0.496797 5.53826 0.951137C5.99216 1.40548 6.30141 1.98443 6.42692 2.61482C6.55242 3.2452 6.48855 3.89871 6.24337 4.49273C5.9982 5.08676 5.58272 5.59462 5.04947 5.95213C4.51622 6.30964 3.88914 6.50074 3.24749 6.50128L3.24615 6.50263ZM6.04492 27H0.444678V8.9649H6.04492V27Z" fill="#FCFCFC"/>
</svg>
