<svg width="98" height="30" viewBox="0 0 98 30" fill="none" xmlns="http://www.w3.org/2000/svg">
<path d="M40.1201 22H30.9268V20.541L37.4043 10.9521H31.1025V9.15039H39.9443V10.627L33.4404 20.1982H40.1201V22ZM50.3682 22L49.085 18.4316H44.1719L42.915 22H40.7002L45.5078 9.09766H47.793L52.6006 22H50.3682ZM48.5312 16.6211L47.3271 13.123C47.2393 12.8887 47.1162 12.5195 46.958 12.0156C46.8057 11.5117 46.7002 11.1426 46.6416 10.9082C46.4834 11.6289 46.252 12.417 45.9473 13.2725L44.7871 16.6211H48.5312ZM64.7471 15.4521C64.7471 17.5732 64.1582 19.1963 62.9805 20.3213C61.8027 21.4404 60.1064 22 57.8916 22H54.2969V9.15039H58.2695C60.3145 9.15039 61.9053 9.70117 63.042 10.8027C64.1787 11.9043 64.7471 13.4541 64.7471 15.4521ZM62.5322 15.5225C62.5322 12.4463 61.0938 10.9082 58.2168 10.9082H56.3975V20.2334H57.8916C60.9854 20.2334 62.5322 18.6631 62.5322 15.5225ZM80.1631 22L78.8799 18.4316H73.9668L72.71 22H70.4951L75.3027 9.09766H77.5879L82.3955 22H80.1631ZM78.3262 16.6211L77.1221 13.123C77.0342 12.8887 76.9111 12.5195 76.7529 12.0156C76.6006 11.5117 76.4951 11.1426 76.4365 10.9082C76.2783 11.6289 76.0469 12.417 75.7422 13.2725L74.582 16.6211H78.3262ZM84.0918 22V9.15039H86.1924V20.1982H91.6328V22H84.0918ZM93.8477 22V9.15039H95.9482V22H93.8477Z" fill="white"/>
<g clip-path="url(#clip0)">
<mask id="mask0" mask-type="alpha" maskUnits="userSpaceOnUse" x="0" y="0" width="30" height="30">
<path d="M1.13282 28.968L1.51013 29.2149C2.13577 29.6243 2.91684 29.4185 3.25471 28.7552L16.3365 3.07517C16.6744 2.41191 16.4411 1.54237 15.8154 1.13298L15.4381 0.886093C14.8125 0.47671 14.0314 0.682513 13.6935 1.34577L0.61178 27.0258C0.273909 27.6891 0.507189 28.5586 1.13282 28.968Z" fill="#D8D8D8"/>
<path d="M28.4698 29.0701L28.8471 28.8232C29.4727 28.4138 29.706 27.5442 29.3682 26.881L16.2864 1.20091C15.9485 0.537649 15.1674 0.331845 14.5418 0.741229L14.1645 0.988118C13.5389 1.3975 13.3056 2.26705 13.6434 2.9303L26.7252 28.6104C27.0631 29.2736 27.8442 29.4794 28.4698 29.0701Z" fill="#D8D8D8"/>
<path d="M29.7285 27.8476C29.7285 26.956 28.9992 26.2332 28.0995 26.2332C27.1999 26.2332 26.4706 26.956 26.4706 27.8476V28.3857C26.4706 29.2773 27.1999 30 28.0995 30C28.9992 30 29.7285 29.2773 29.7285 28.3857V27.8476Z" fill="#D8D8D8"/>
<path d="M4.20813 28.1166C4.20813 27.0764 3.35727 26.2332 2.30768 26.2332C1.25809 26.2332 0.407227 27.0764 0.407227 28.1166C0.407227 29.1568 1.25809 30 2.30768 30C3.35727 30 4.20813 29.1568 4.20813 28.1166Z" fill="#D8D8D8"/>
</mask>
<g mask="url(#mask0)">
<path d="M30 0H-0.271484V31.4798H30V0Z" fill="url(#paint0_linear)"/>
</g>
</g>
<defs>
<linearGradient id="paint0_linear" x1="-0.271484" y1="12.3767" x2="29.9981" y2="14.1572" gradientUnits="userSpaceOnUse">
<stop stop-color="#FF00CC"/>
<stop offset="1" stop-color="#333399"/>
</linearGradient>
<clipPath id="clip0">
<rect width="30" height="30" fill="white"/>
</clipPath>
</defs>
</svg>
